<?xml version="1.0" encoding="utf-8"?>
<!-- Generator: Adobe Illustrator 22.0.1, SVG Export Plug-In . SVG Version: 6.00 Build 0)  -->
<svg version="1.1" id="Layer_1" xmlns="http://www.w3.org/2000/svg" xmlns:xlink="http://www.w3.org/1999/xlink" x="0px" y="0px"
	 viewBox="0 0 769 204.3" style="enable-background:new 0 0 769 204.3;" xml:space="preserve">
<style type="text/css">
	.st0{fill:#4D3868;}
	.st1{fill:#8F59C9;}
	.st2{fill:#280F4C;}
</style>
<title>logo</title>
<g id="pth">
	<polygon class="st0" points="201.2,0 769,0 769,204.3 201.2,204.3 	"/>
</g>
<polygon class="st1" points="0,102.2 415,102.2 201.2,204.3 0,204.3 "/>
<polygon class="st1" points="0,0 201.2,0 410,102.1 0,102.1 "/>
<g>
	<path class="st2" d="M56.8,79.3h5.5v37.9h18.1v4.6H56.8V79.3z"/>
	<path class="st2" d="M103.2,121.7l-0.4-3.8h-0.2c-1.7,2.4-5,4.5-9.3,4.5c-6.2,0-9.3-4.3-9.3-8.8c0-7.4,6.6-11.4,18.3-11.3v-0.6
		c0-2.5-0.7-7.1-6.9-7.1c-2.8,0-5.8,0.9-7.9,2.3l-1.3-3.7c2.5-1.6,6.2-2.7,10-2.7c9.3,0,11.6,6.4,11.6,12.5v11.4
		c0,2.6,0.1,5.2,0.5,7.3H103.2z M102.4,106.2c-6-0.1-12.9,0.9-12.9,6.9c0,3.6,2.4,5.3,5.2,5.3c4,0,6.5-2.5,7.4-5.1
		c0.2-0.6,0.3-1.2,0.3-1.8V106.2z"/>
	<path class="st2" d="M116.7,100.7c0-3.6-0.1-6.7-0.3-9.5h4.9l0.2,6h0.3c1.4-4.1,4.7-6.7,8.4-6.7c0.6,0,1.1,0.1,1.6,0.2V96
		c-0.6-0.1-1.1-0.2-1.9-0.2c-3.9,0-6.7,3-7.4,7.1c-0.1,0.8-0.3,1.6-0.3,2.6v16.3h-5.5V100.7z"/>
	<path class="st2" d="M153.9,121.7l-0.4-3.8h-0.2c-1.7,2.4-5,4.5-9.3,4.5c-6.2,0-9.3-4.3-9.3-8.8c0-7.4,6.6-11.4,18.3-11.3v-0.6
		c0-2.5-0.7-7.1-6.9-7.1c-2.8,0-5.8,0.9-7.9,2.3l-1.3-3.7c2.5-1.6,6.2-2.7,10-2.7c9.3,0,11.6,6.4,11.6,12.5v11.4
		c0,2.6,0.1,5.2,0.5,7.3H153.9z M153.1,106.2c-6-0.1-12.9,0.9-12.9,6.9c0,3.6,2.4,5.3,5.2,5.3c4,0,6.5-2.5,7.4-5.1
		c0.2-0.6,0.3-1.2,0.3-1.8V106.2z"/>
	<path class="st2" d="M169,91.2l6,17.1c1,2.8,1.8,5.3,2.5,7.8h0.2c0.7-2.5,1.6-5,2.6-7.8l5.9-17.1h5.8l-12,30.5h-5.3l-11.6-30.5H169
		z"/>
	<path class="st2" d="M199.6,107.5c0.1,7.5,4.9,10.6,10.5,10.6c4,0,6.4-0.7,8.4-1.6l0.9,4c-2,0.9-5.3,1.9-10.1,1.9
		c-9.4,0-15-6.2-15-15.4c0-9.2,5.4-16.4,14.3-16.4c10,0,12.6,8.8,12.6,14.4c0,1.1-0.1,2-0.2,2.6H199.6z M215.9,103.5
		c0.1-3.5-1.4-9-7.7-9c-5.6,0-8.1,5.2-8.5,9H215.9z"/>
	<path class="st2" d="M228.1,77h5.5v44.7h-5.5V77z"/>
</g>
</svg>
